<svg xmlns="http://www.w3.org/2000/svg" viewBox="0 0 48 48"><path d="M 17 2 L 17 4 L 23 4 L 23 2 Z M 28 2 L 28 4 L 34 4 L 34 2 Z M 10.6875 2.15625 C 6.320313 2.898438 2.898438 6.320313 2.15625 10.6875 L 4.125 11.03125 C 4.722656 7.503906 7.503906 4.722656 11.03125 4.125 Z M 39.3125 2.15625 L 38.96875 4.125 C 42.496094 4.722656 45.277344 7.503906 45.875 11.03125 L 47.84375 10.6875 C 47.101563 6.320313 43.679688 2.898438 39.3125 2.15625 Z M 2 16 L 2 22 L 4 22 L 4 16 Z M 46 17 L 46 23 L 48 23 L 48 17 Z M 2 27 L 2 33 L 4 33 L 4 27 Z M 46 28 L 46 34 L 48 34 L 48 28 Z M 4.125 38.96875 L 2.15625 39.3125 C 2.898438 43.679688 6.320313 47.101563 10.6875 47.84375 L 11.03125 45.875 C 7.503906 45.277344 4.722656 42.496094 4.125 38.96875 Z M 45.875 38.96875 C 45.277344 42.496094 42.496094 45.277344 38.96875 45.875 L 39.3125 47.84375 C 43.679688 47.101563 47.101563 43.679688 47.84375 39.3125 Z M 16 46 L 16 48 L 22 48 L 22 46 Z M 27 46 L 27 48 L 33 48 L 33 46 Z"></path></svg>
